# xmcd
#
# Track frame offsets:
#	183
#	27408
#	71045
#	80945
#	107870
#	126520
#	156458
#	177470
#	198445
#
# Disc length: 2948 seconds
#
# Revision: 0
# Processed by: cddbd v1.4PL0 Copyright (c) Steve Scherf et al.
# Submitted via: EasyCDDAExtractor 5.0.5.1
#
DISCID=8c0b8209
DTITLE=Van Halen - USA 1992 [CD2 of 2)
DYEAR=1992
DGENRE=Blues
TTITLE0=If You Want
TTITLE1=Eddie Solo
TTITLE2=You Really Got Me
TTITLE3=Cabo Wabo
TTITLE4=Jump
TTITLE5=In 'N' Out
TTITLE6=The Dream Is Over
TTITLE7=Best of Both Worlds
TTITLE8=Top of the World
EXTD=
EXTT0=
EXTT1=
EXTT2=
EXTT3=
EXTT4=
EXTT5=
EXTT6=
EXTT7=
EXTT8=
PLAYORDER=
